<svg width="24" height="24" viewBox="0 0 24 24" fill="none" xmlns="http://www.w3.org/2000/svg">
<path d="M16.4103 1.49609C14.8269 1.49609 13.2814 1.99461 12 2.9097C10.7185 1.99461 9.17311 1.49609 7.58963 1.49609C3.40467 1.49609 0 4.90077 0 9.08576C0 10.7271 0.567281 12.3567 1.64053 13.7984C3.3878 16.1457 11.6662 22.2565 12 22.5024C12.3338 22.2565 20.6122 16.1457 22.3595 13.7984C23.4327 12.3567 24 10.727 24 9.08576C24 4.90077 20.5953 1.49609 16.4103 1.49609ZM7.75481 17.4136V17.4742C6.46322 16.44 5.14416 15.3412 4.14816 14.4123C4.39805 13.1005 5.55286 12.1055 6.93633 12.1055C8.12297 12.1055 9.17105 12.8467 9.58608 13.9235C8.48039 14.6906 7.75481 15.9688 7.75481 17.4136ZM4.83563 8.59845C4.83563 7.44012 5.778 6.49775 6.93637 6.49775C8.09475 6.49775 9.03713 7.44012 9.03713 8.59845C9.03713 9.75683 8.09475 10.6992 6.93637 10.6992C5.778 10.6992 4.83563 9.75683 4.83563 8.59845ZM14.8389 18.585C13.6205 19.5356 12.5583 20.3357 12 20.7529C11.4417 20.3358 10.3795 19.5356 9.16106 18.5851V17.4136C9.16106 15.8482 10.4346 14.5747 12 14.5747C13.5654 14.5747 14.8389 15.8482 14.8389 17.4136V18.585ZM9.89925 11.0676C9.89925 9.90931 10.8416 8.96694 12 8.96694C13.1584 8.96694 14.1007 9.90931 14.1007 11.0676C14.1007 12.226 13.1583 13.1683 12 13.1683C10.8417 13.1683 9.89925 12.226 9.89925 11.0676ZM16.2451 17.4741V17.4136C16.2451 15.9688 15.5196 14.6907 14.4138 13.9235C14.8289 12.8467 15.877 12.1055 17.0636 12.1055C18.4471 12.1055 19.6019 13.1004 19.8518 14.4122C18.8558 15.3411 17.5368 16.4399 16.2451 17.4741ZM14.9629 8.59845C14.9629 7.44012 15.9052 6.49775 17.0636 6.49775C18.222 6.49775 19.1643 7.44012 19.1643 8.59845C19.1643 9.75683 18.222 10.6992 17.0636 10.6992C15.9053 10.6992 14.9629 9.75683 14.9629 8.59845ZM21.2315 12.9587C21.1571 13.0586 21.0688 13.1667 20.9692 13.2811C20.6202 12.4648 20.0227 11.7792 19.272 11.3202C20.0637 10.6767 20.5706 9.6958 20.5706 8.59845C20.5706 6.66472 18.9974 5.0915 17.0636 5.0915C15.349 5.0915 13.9188 6.32872 13.6165 7.95702C13.1324 7.70441 12.5828 7.56069 12 7.56069C11.4172 7.56069 10.8676 7.70441 10.3835 7.95702C10.0811 6.32867 8.65097 5.0915 6.93637 5.0915C5.00264 5.0915 3.42938 6.66472 3.42938 8.59845C3.42938 9.6958 3.93633 10.6766 4.72795 11.3202C3.97739 11.7792 3.37978 12.4648 3.0308 13.2811C2.93128 13.1667 2.84292 13.0586 2.76853 12.9587C1.8773 11.7615 1.40625 10.4222 1.40625 9.08576C1.40625 5.67622 4.18008 2.90234 7.58963 2.90234C9.03473 2.90234 10.441 3.41197 11.5493 4.33742L12 4.71364L12.4507 4.33742C13.559 3.41197 14.9653 2.90234 16.4104 2.90234C19.8199 2.90234 22.5938 5.67617 22.5938 9.08576C22.5938 10.4222 22.1227 11.7615 21.2315 12.9587Z" fill="white"/>
</svg>
